<svg fill="none" height="898" viewBox="0 0 800 898" width="800" xmlns="http://www.w3.org/2000/svg" xmlns:xlink="http://www.w3.org/1999/xlink"><filter id="a" color-interpolation-filters="sRGB" filterUnits="userSpaceOnUse" height="420.89" width="423.181" x="188.521" y="361.908"><feFlood flood-opacity="0" result="BackgroundImageFix"/><feGaussianBlur in="BackgroundImageFix" stdDeviation="10"/><feComposite in2="SourceAlpha" operator="in" result="effect1_backgroundBlur_1637_47"/><feBlend in="SourceGraphic" in2="effect1_backgroundBlur_1637_47" mode="normal" result="shape"/></filter><linearGradient id="b"><stop offset="0" stop-color="#7fd5e3"/><stop offset=".770833" stop-color="#aeeff0"/></linearGradient><linearGradient id="c" gradientUnits="userSpaceOnUse" x1="233.326" x2="241.809" xlink:href="#b" y1="243.792" y2="284.95"/><linearGradient id="d" gradientUnits="userSpaceOnUse" x1="277.296" x2="304.128" y1="275.972" y2="302.009"><stop offset=".385417" stop-color="#ffdb5c"/><stop offset="1" stop-color="#ecb732"/></linearGradient><linearGradient id="e"><stop offset="0" stop-color="#52ce63"/><stop offset="1" stop-color="#51a256"/></linearGradient><linearGradient id="f" gradientUnits="userSpaceOnUse" x1="233.887" x2="230.388" xlink:href="#e" y1="136.565" y2="147.767"/><linearGradient id="g"><stop offset="0" stop-color="#8ae99c"/><stop offset="1" stop-color="#52ce63"/></linearGradient><linearGradient id="h" gradientUnits="userSpaceOnUse" x1="256.561" x2="245.971" xlink:href="#g" y1="138.333" y2="152.754"/><linearGradient id="i" gradientUnits="userSpaceOnUse" x1="214.536" x2="213.733" y1="167.529" y2="168.196"><stop offset="0" stop-color="#fff" stop-opacity="0"/><stop offset=".282022" stop-color="#fff"/><stop offset="1" stop-color="#fff" stop-opacity="0"/></linearGradient><radialGradient id="j" cx="0" cy="0" gradientTransform="matrix(1.36208147 1.63937714 -3.1980157 2.65708103 190.872 141.075)" gradientUnits="userSpaceOnUse" r="1"><stop offset=".52747"/><stop offset=".63688" stop-opacity="0"/></radialGradient><linearGradient id="k" gradientUnits="userSpaceOnUse" x1="227.082" x2="238.714" y1="159.803" y2="238.05"><stop offset=".078125" stop-color="#fff"/><stop offset=".473958" stop-color="#fffaa5"/><stop offset=".84375" stop-color="#fffed4"/></linearGradient><linearGradient id="l" gradientUnits="userSpaceOnUse" x1="366.94" x2="366.161" xlink:href="#e" y1="93.3179" y2="168.2"/><linearGradient id="m" gradientUnits="userSpaceOnUse" x1="617.826" x2="542.939" xlink:href="#e" y1="189.364" y2="188.567"/><linearGradient id="n" gradientUnits="userSpaceOnUse" x1="514.204" x2="476.049" xlink:href="#g" y1="62.4891" y2="171.814"/><linearGradient id="o" gradientUnits="userSpaceOnUse" x1="451.43" x2="376.146" y1="255.419" y2="495.027"><stop offset="0" stop-color="#ffe56c"/><stop offset="1" stop-color="#ffc63a"/></linearGradient><linearGradient id="p" gradientUnits="userSpaceOnUse" x1="394.756" x2="394.756" xlink:href="#b" y1="712.519" y2="888"/><linearGradient id="q" gradientUnits="userSpaceOnUse" x1="399.85" x2="399.85" y1="375.856" y2="706.195"><stop offset=".078125" stop-color="#fff" stop-opacity="0"/><stop offset=".276042" stop-color="#fffaa5"/><stop offset=".84375" stop-color="#fffed4"/></linearGradient><linearGradient id="r" gradientUnits="userSpaceOnUse" x1="553.538" x2="536.097" y1="426.455" y2="349.514"><stop offset="0" stop-color="#ecb732"/><stop offset=".653943" stop-color="#ffe56c"/></linearGradient><path d="m587.128 385.531c-188.875-56.155-178.038-57.025-366-.69 27.292 44.834 27.992 84.84 15.395 143.469 159.33 0 321.213.69 321.213.69-11.897-44.834-13.996-79.322 29.392-143.469z" fill="#f0fcfc" stroke="#7fd5e3" stroke-linejoin="round" stroke-width="6"/><path d="m226.182 243.95c1.207 1.485 12.678-.331 15.477-3.19-.971 4.681-.049 27.776 2.27 29.801 1.926 1.125 11.494 2.535 15.481 2.306 2.533.154 3.397 1.7 3.335 2.863-.183 3.42-16.585 8.279-19.54 8.932-3.539.778-22.748 2.743-24.34.112-.244-.795.359-2.949 2.934-4.156 5.603-2.169 12.681-6.649 13.617-8.302 1.816-2.15-6.526-25.035-9.234-28.366z" fill="url(#c)"/><path d="m229.202 244.511c.072 2.53 10.388 27.359 8.133 29.281-.724.758-18.017 8.099-14.603 9.002 2.559.677 21.937 1.143 33.378-4.442.96-.194 1.649.618 2.569.753-12.996 6.227-18.27 6.471-30.28 6.917-1.998.133-7.604.499-9.221-1.291-1.048-1.161 1.238-3.3 1.776-3.516 1.215-.49 12.498-6.296 14.115-8.236 3.369-1.345-6.992-26.883-8.621-28.915 1.328.572 1.742.233 2.754.447z" fill="#fdfffe"/><path d="m245.125 229.52c3.064-16.516 10.925 68.722 73.375 44.98-4.085 9.807-7.851 14.032-15 29-29.416 15.761-54.974-17.288-61.714-32.604-22.163 23.228-31.229-63.028 3.339-41.376z" fill="url(#d)"/><path d="m237.24 267.66c.365 1.043 1.506 1.593 2.548 1.228 1.043-.365 1.592-1.506 1.227-2.548zm-2.063-22.409 1.996.128zm1.043-9.251c-1.979-.289-1.979-.289-1.979-.289h-.001v.001.004c-.001.003-.001.007-.002.012-.002.012-.004.028-.007.049-.006.042-.015.105-.027.185-.022.16-.055.392-.095.682-.08.58-.189 1.393-.305 2.324-.232 1.853-.499 4.215-.623 6.156l3.992.255c.116-1.816.37-4.08.6-5.914.114-.912.22-1.707.299-2.275.039-.284.071-.51.093-.665.011-.077.019-.137.025-.177.003-.02.005-.035.006-.045.001-.005.002-.008.002-.011 0-.001 0-.002 0-.002v-.001h.001s-.001 0-1.979-.289zm-3.039 9.124c-.303 4.738.748 10.42 1.816 14.792.541 2.212 1.099 4.141 1.522 5.517.212.689.39 1.241.517 1.623.063.191.113.34.148.442.017.051.031.09.04.118.005.013.009.024.011.031.002.004.003.007.003.009.001.001.001.002.001.003 0 0 .001.001.001.001s0 0 1.888-.66c1.887-.66 1.888-.66 1.888-.66s-.001 0-.001-.001-.001-.003-.001-.005c-.002-.005-.005-.013-.009-.024-.007-.022-.019-.056-.035-.102-.031-.091-.077-.229-.136-.408-.119-.358-.289-.883-.491-1.543-.406-1.32-.942-3.171-1.46-5.291-1.049-4.292-1.973-9.484-1.71-13.587z" fill="#ecb732"/><path d="m251.735 157.143c-18.944.673-29.761 1.26-48.29 6.174l7.698 10.409 37.203-5.531z" fill="#f0fcfc" stroke="#7fd5e3" stroke-linejoin="round" stroke-width="2"/><path clip-rule="evenodd" d="m236.905 164.814c5.895-1.691 7.114-7.182 6.481-15.018-.633-7.835-6.768-13.931-8.773-13.356s-7.062 9.882-6.429 17.717 2.826 12.348 8.721 10.657z" fill="url(#f)" fill-rule="evenodd"/><path clip-rule="evenodd" d="m239.765 163.743c4.527 3.325 8.761-.25 13.416-7.254 4.655-7.005 4.982-16.979 3.442-18.11-1.539-1.131-10.461 2.531-15.117 9.535-4.655 7.005-6.269 12.504-1.741 15.829z" fill="url(#h)" fill-rule="evenodd"/><path d="m189.664 143.157c.546-1.355 1.074-2.004 2.977-2.68l35.096 42.471c-1.448.624-2.06 1.27-2.978 2.681z" fill="#000"/><path d="m189.664 143.157c.546-1.355 1.074-2.004 2.977-2.68l35.096 42.471c-1.448.624-2.06 1.27-2.978 2.681z" fill="url(#i)"/><path d="m189.664 143.157c.546-1.355 1.074-2.004 2.977-2.68l35.096 42.471c-1.448.624-2.06 1.27-2.978 2.681z" fill="url(#j)"/><path d="m203.21 163.352c17.042 1.234 33.703-.573 48.538-6.127-2.89 11.732-.974 20.321.043 23.938 13.681 25.929 9.045 37.199 6.308 42.43-12.077 18.707-29.009 17.121-38.344 9.132-12.411-8.787-14.05-20.348-9.152-45.439-1.242-8.355-3.142-14.687-7.393-23.934z" fill="url(#k)"/><path d="m203.21 163.352c17.042 1.234 33.703-.573 48.538-6.127-2.89 11.732-.974 20.321.043 23.938 13.681 25.929 9.045 37.199 6.308 42.43-12.077 18.707-29.009 17.121-38.344 9.132-12.411-8.787-14.05-20.348-9.152-45.439-1.242-8.355-3.142-14.687-7.393-23.934z" fill="#aeeff0" fill-opacity=".19"/><path d="m203.21 163.352c17.042 1.234 33.703-.573 48.538-6.127-2.89 11.732-.974 20.321.043 23.938 13.681 25.929 9.045 37.199 6.308 42.43-12.077 18.707-29.009 17.121-38.344 9.132-12.411-8.787-14.05-20.348-9.152-45.439-1.242-8.355-3.142-14.687-7.393-23.934z" stroke="#7fd5e3" stroke-linecap="round" stroke-linejoin="round" stroke-miterlimit="3.60929" stroke-width="2"/><path d="m237.553 179.428 7.114.03c2.753 9.618 4.634 14.26 8.807 24.31-1.669 3.444-3.949 5.03-8.655 5.724-6.286-9.521-7.762-16.177-7.266-30.064z" fill="#fdfee9" fill-opacity=".82"/><g clip-rule="evenodd" fill-rule="evenodd"><path d="m433.39 260.331c34.69-21.154 33.266-56.933 16.134-103.631s-66.376-72.6719-78.174-65.477c-11.799 7.1949-28.415 73.33-11.283 120.028s38.633 70.234 73.323 49.08z" fill="url(#l)"/><path d="m457.425 269.514c13.994 38.145 45.087 32.053 87.555 6.156s70.995-86.964 66.235-99.938c-4.76-12.973-59.855-24.326-102.323 1.571s-65.462 54.066-51.467 92.211z" fill="url(#m)"/><path d="m449.798 248.545c34.374 11.996 55.339-17.616 73.255-68.949 17.915-51.332 3.313-112.8622-8.378-116.9425s-62.35 34.6736-80.265 86.0055c-17.915 51.333-18.986 87.889 15.388 99.886z" fill="url(#n)"/><path d="m394.608 499.418c74.042 16.061 138.754 7.579 159.913-89.964 21.16-97.542-21.524-190.61-95.565-206.671-74.042-16.062-151.405 50.965-172.564 148.507-21.16 97.543 34.174 132.066 108.216 148.128z" fill="url(#o)"/><path d="m522.686 417.137c-1.544-2.298-4.659-2.909-6.957-1.365l-80.798 54.292c-2.298 1.544-2.91 4.659-1.365 6.957 1.544 2.299 4.659 2.91 6.957 1.366l80.798-54.292c2.298-1.545 2.909-4.659 1.365-6.958z" fill="#ecb732"/><path d="m457.194 411.286c-2.374 1.425-3.142 4.505-1.717 6.879l32.206 53.622c1.425 2.373 4.505 3.142 6.879 1.716 2.373-1.425 3.142-4.505 1.716-6.879l-32.205-53.622c-1.426-2.373-4.506-3.142-6.879-1.716z" fill="#ecb732"/><path d="m481.033 244.015c1.498 2.329.825 5.431-1.503 6.929l-53.118 34.181c-2.328 1.498-5.43.825-6.929-1.504-1.498-2.328-.825-5.43 1.503-6.928l53.118-34.181c2.328-1.498 5.43-.825 6.929 1.503z" fill="#ffc73b"/><path d="m461.153 292.661c2.329-1.499 3.001-4.601 1.503-6.929l-34.18-53.118c-1.499-2.328-4.601-3.001-6.929-1.503-2.328 1.499-3.001 4.601-1.503 6.929l34.18 53.118c1.499 2.328 4.601 3.001 6.929 1.503z" fill="#ffc73b"/></g><path d="m353.029 341.568c10.219 3.566 19.848 2.604 21.507-2.149s-5.281-11.497-15.5-15.063c-10.218-3.567-19.847-2.605-21.506 2.148s5.28 11.497 15.499 15.064z" fill="#eaadcc"/><path d="m487.451 376.393c10.578 2.295 20.017.166 21.085-4.753 1.067-4.92-6.643-10.768-17.22-13.063-10.577-2.294-20.017-.166-21.085 4.754-1.067 4.919 6.643 10.768 17.22 13.062z" fill="#eaadcc"/><path clip-rule="evenodd" d="m308.341 370.64c2.357-1.451 5.446-.717 6.897 1.641l51.04 82.891c1.452 2.357.717 5.445-1.64 6.897-2.358 1.452-5.446.718-6.898-1.64l-51.04-82.891c-1.451-2.358-.717-5.446 1.641-6.898z" fill="#ecb732" fill-rule="evenodd"/><path clip-rule="evenodd" d="m370.371 392.452c1.57 2.281.993 5.402-1.288 6.972l-51.529 35.458c-2.281 1.569-5.403.992-6.972-1.289-1.57-2.281-.993-5.402 1.288-6.971l51.529-35.458c2.281-1.57 5.403-.993 6.972 1.288z" fill="#ecb732" fill-rule="evenodd"/><path d="m446.846 345.706c-2.512 11.581-17.225 19.067-28.049 16.719-10.823-2.348-17.994-14.591-15.482-26.171 1.388-6.396 12.532-7.545 23.355-5.197 10.824 2.348 21.564 8.254 20.176 14.649z" fill="#e77777"/><path clip-rule="evenodd" d="m350.974 295.736c-1.403.56-2.087 2.15-1.527 3.553 2.817 7.066 8.43 11.911 16.412 14.622 8.043 2.731 15.879 2.226 23.332-1.549 1.347-.683 1.886-2.328 1.204-3.676-.682-1.347-2.328-1.886-3.675-1.203-6.107 3.093-12.416 3.52-19.102 1.25-6.746-2.291-10.968-6.143-13.091-11.469-.56-1.403-2.15-2.087-3.553-1.528z" fill="#755400" fill-rule="evenodd"/><path clip-rule="evenodd" d="m467.183 331.205c-1.403.559-2.087 2.15-1.528 3.553 2.817 7.065 8.431 11.911 16.413 14.622 8.042 2.731 15.878 2.225 23.332-1.55 1.347-.682 1.886-2.328 1.204-3.675-.683-1.347-2.328-1.886-3.675-1.204-6.108 3.093-12.416 3.521-19.102 1.25-6.746-2.291-10.968-6.143-13.092-11.469-.559-1.403-2.15-2.087-3.552-1.527z" fill="#755400" fill-rule="evenodd"/><path d="m357.784 712.429c8.796 7.093 53.534 9.337 86.6 0-18.895 18.328-18.562 108.272 0 118.509 16.533 6.225 49.378 20.057 88.742 22.478 24.406 2.766 29.73 9.818 26.785 14.524-8.661 13.832-120.799 19.879-150.954 20.056-36.095.2-160.033-7.953-170.268-20.056-.787-3.458 9.431-11.758 36.985-14.524 59.047-4.15 72.889-15.017 82.11-22.478 16.726-13.534 19.726-102.602 0-118.509z" fill="url(#p)"/><path d="m386.44 719.378c-4.391 10.407 1.999 124.959-23.881 130.918-8.589 2.492-90.278 12.597-70.981 14.744 23.978 2.667 118.162 13.419 241.041.22 9.761.016 5.99 2.602 14.696 3.932-139.349 14.514-87.658 19.497-205.751 11.197-19.762-1.139-69.983-6.298-87.479-11.197-7.888-5.63 22.31-9.369 27.994-9.798 12.838-.982 50.307-10.225 69.983-16.796 32.892-10.983 20.207-117.687 8.398-127.369 11.809 3.458 16.537 2.421 25.98 4.149z" fill="#fdfffe"/><g filter="url(#a)"><path d="m220.493 384.908c166.135 49.457 212.377 48.131 366.712 0-46.889 72.44-30.792 132.268-25.894 167.26 3.5 41.29 44.04 64.991 19.596 113.372-63.349 125.383-282.733 125.971-359.714 0-28.111-46 13.997-59.463 13.997-113.372 0-51.788 13.647-126.455-14.697-167.26z" fill="url(#q)"/><path d="m220.493 384.908c166.135 49.457 212.377 48.131 366.712 0-46.889 72.44-30.792 132.268-25.894 167.26 3.5 41.29 44.04 64.991 19.596 113.372-63.349 125.383-282.733 125.971-359.714 0-28.111-46 13.997-59.463 13.997-113.372 0-51.788 13.647-126.455-14.697-167.26z" fill="#aeeff0" fill-opacity=".19"/><path d="m220.493 384.908c166.135 49.457 212.377 48.131 366.712 0-46.889 72.44-30.792 132.268-25.894 167.26 3.5 41.29 44.04 64.991 19.596 113.372-63.349 125.383-282.733 125.971-359.714 0-28.111-46 13.997-59.463 13.997-113.372 0-51.788 13.647-126.455-14.697-167.26z" stroke="#7fd5e3" stroke-linecap="round" stroke-linejoin="round" stroke-miterlimit="3.60929" stroke-width="6"/></g><path d="m466.834 529.074 63.684-9.798c6.603 81.838-.322 64.494 20.296 95.177-6.998 13.297-25.894 49.688-63.685 31.493-26.365-42.668-11.38-21.251-20.295-116.872z" fill="#f9fef9"/><path d="m262.483 425.499c15.396 54.586 16.096 113.372-7.698 180.556-18.006 50.84 32.276 98.184 84.679 112.673" stroke="#f9fef9" stroke-linecap="round" stroke-linejoin="round" stroke-opacity=".85" stroke-width="12"/><path d="m557.837 340c7.454 1.653 14.108 5.426 21.643 14.157 5.638 6.531 10.895 15.712 12.452 24.099 1.35 7.267.26 15.843-5.839 20.673 0 0-15.924 4.99-24.903 6.233-45.386 6.286-24.42 2.481-32.055 25.462-5.517 16.578-40.485-10.033-39.391-24.32 1.732-22.849 41.613-20.232 54.766-21.153 6.994-.493 20.65 1.456 24.074-4.799 1.085-1.982-4.837-10.368-9.757-12.852z" fill="url(#r)"/><path d="m531.746 392.401c.295 1.711-19.64 4.473-26.98 5.763-7.34 1.291-11.12 6.426-11.415 4.715-.295-1.71 2.518-7.091 9.858-8.382 4.151-.73 8.301-1.572 12.452-2.096 6.227-1.047 15.931-.891 16.085 0z" fill="#ffefa3"/></svg>